<mxfile host="app.diagrams.net" modified="2023-03-16T18:05:53.863Z" agent="5.0 (Macintosh; Intel Mac OS X 10_15_7) AppleWebKit/537.36 (KHTML, like Gecko) Chrome/108.0.0.0 Safari/537.36" etag="ravQzM_ZgxTsj5XXXpkO" version="20.8.23" type="github">
  <diagram name="Страница 1" id="a8sqZZ9SbnPUmBpldSD6">
    <mxGraphModel dx="1590" dy="1080" grid="1" gridSize="10" guides="1" tooltips="1" connect="1" arrows="1" fold="1" page="1" pageScale="1" pageWidth="827" pageHeight="1169" math="0" shadow="0">
      <root>
        <mxCell id="0" />
        <mxCell id="1" parent="0" />
        <mxCell id="yjlJrb9iQwkOzFSjGN5_-13" style="edgeStyle=orthogonalEdgeStyle;rounded=0;sketch=1;hachureGap=4;jiggle=2;curveFitting=1;orthogonalLoop=1;jettySize=auto;html=1;exitX=0.5;exitY=1;exitDx=0;exitDy=0;entryX=0.5;entryY=0;entryDx=0;entryDy=0;strokeColor=#457B9D;fontFamily=Architects Daughter;fontSource=https%3A%2F%2Ffonts.googleapis.com%2Fcss%3Ffamily%3DArchitects%2BDaughter;fontSize=16;fontColor=default;labelBackgroundColor=none;" edge="1" parent="1" source="yjlJrb9iQwkOzFSjGN5_-1" target="yjlJrb9iQwkOzFSjGN5_-2">
          <mxGeometry relative="1" as="geometry" />
        </mxCell>
        <mxCell id="yjlJrb9iQwkOzFSjGN5_-14" style="edgeStyle=orthogonalEdgeStyle;rounded=0;sketch=1;hachureGap=4;jiggle=2;curveFitting=1;orthogonalLoop=1;jettySize=auto;html=1;exitX=0.5;exitY=1;exitDx=0;exitDy=0;entryX=0.5;entryY=0;entryDx=0;entryDy=0;strokeColor=#457B9D;fontFamily=Architects Daughter;fontSource=https%3A%2F%2Ffonts.googleapis.com%2Fcss%3Ffamily%3DArchitects%2BDaughter;fontSize=16;fontColor=default;labelBackgroundColor=none;" edge="1" parent="1" source="yjlJrb9iQwkOzFSjGN5_-1" target="yjlJrb9iQwkOzFSjGN5_-4">
          <mxGeometry relative="1" as="geometry" />
        </mxCell>
        <mxCell id="yjlJrb9iQwkOzFSjGN5_-15" style="edgeStyle=orthogonalEdgeStyle;rounded=0;sketch=1;hachureGap=4;jiggle=2;curveFitting=1;orthogonalLoop=1;jettySize=auto;html=1;exitX=0.5;exitY=1;exitDx=0;exitDy=0;entryX=0.5;entryY=0;entryDx=0;entryDy=0;strokeColor=#457B9D;fontFamily=Architects Daughter;fontSource=https%3A%2F%2Ffonts.googleapis.com%2Fcss%3Ffamily%3DArchitects%2BDaughter;fontSize=16;fontColor=default;labelBackgroundColor=none;" edge="1" parent="1" source="yjlJrb9iQwkOzFSjGN5_-1" target="yjlJrb9iQwkOzFSjGN5_-3">
          <mxGeometry relative="1" as="geometry" />
        </mxCell>
        <mxCell id="yjlJrb9iQwkOzFSjGN5_-1" value="Покупка автомобиля" style="rounded=1;whiteSpace=wrap;html=1;sketch=1;hachureGap=4;jiggle=2;curveFitting=1;fontFamily=Architects Daughter;fontSource=https%3A%2F%2Ffonts.googleapis.com%2Fcss%3Ffamily%3DArchitects%2BDaughter;fontSize=20;labelBackgroundColor=none;fillColor=#A8DADC;strokeColor=#457B9D;fontColor=#1D3557;" vertex="1" parent="1">
          <mxGeometry x="560" y="40" width="240" height="80" as="geometry" />
        </mxCell>
        <mxCell id="yjlJrb9iQwkOzFSjGN5_-16" style="edgeStyle=orthogonalEdgeStyle;rounded=0;sketch=1;hachureGap=4;jiggle=2;curveFitting=1;orthogonalLoop=1;jettySize=auto;html=1;exitX=0.5;exitY=1;exitDx=0;exitDy=0;entryX=0.5;entryY=0;entryDx=0;entryDy=0;strokeColor=#457B9D;fontFamily=Architects Daughter;fontSource=https%3A%2F%2Ffonts.googleapis.com%2Fcss%3Ffamily%3DArchitects%2BDaughter;fontSize=16;fontColor=#1D3557;fillColor=#A8DADC;" edge="1" parent="1" source="yjlJrb9iQwkOzFSjGN5_-2" target="yjlJrb9iQwkOzFSjGN5_-5">
          <mxGeometry relative="1" as="geometry" />
        </mxCell>
        <mxCell id="yjlJrb9iQwkOzFSjGN5_-17" style="edgeStyle=orthogonalEdgeStyle;rounded=0;sketch=1;hachureGap=4;jiggle=2;curveFitting=1;orthogonalLoop=1;jettySize=auto;html=1;exitX=0.5;exitY=1;exitDx=0;exitDy=0;entryX=0.5;entryY=0;entryDx=0;entryDy=0;strokeColor=#457B9D;fontFamily=Architects Daughter;fontSource=https%3A%2F%2Ffonts.googleapis.com%2Fcss%3Ffamily%3DArchitects%2BDaughter;fontSize=16;fontColor=#1D3557;fillColor=#A8DADC;" edge="1" parent="1" source="yjlJrb9iQwkOzFSjGN5_-2" target="yjlJrb9iQwkOzFSjGN5_-6">
          <mxGeometry relative="1" as="geometry" />
        </mxCell>
        <mxCell id="yjlJrb9iQwkOzFSjGN5_-2" value="Характеристики" style="rounded=1;whiteSpace=wrap;html=1;sketch=1;hachureGap=4;jiggle=2;curveFitting=1;fontFamily=Architects Daughter;fontSource=https%3A%2F%2Ffonts.googleapis.com%2Fcss%3Ffamily%3DArchitects%2BDaughter;fontSize=20;labelBackgroundColor=none;fillColor=#A8DADC;strokeColor=#457B9D;fontColor=#1D3557;" vertex="1" parent="1">
          <mxGeometry x="160" y="160" width="200" height="80" as="geometry" />
        </mxCell>
        <mxCell id="yjlJrb9iQwkOzFSjGN5_-18" style="edgeStyle=orthogonalEdgeStyle;rounded=0;sketch=1;hachureGap=4;jiggle=2;curveFitting=1;orthogonalLoop=1;jettySize=auto;html=1;exitX=0.5;exitY=1;exitDx=0;exitDy=0;entryX=0.5;entryY=0;entryDx=0;entryDy=0;strokeColor=#457B9D;fontFamily=Architects Daughter;fontSource=https%3A%2F%2Ffonts.googleapis.com%2Fcss%3Ffamily%3DArchitects%2BDaughter;fontSize=16;fontColor=#1D3557;fillColor=#A8DADC;" edge="1" parent="1" source="yjlJrb9iQwkOzFSjGN5_-3" target="yjlJrb9iQwkOzFSjGN5_-7">
          <mxGeometry relative="1" as="geometry" />
        </mxCell>
        <mxCell id="yjlJrb9iQwkOzFSjGN5_-19" style="edgeStyle=orthogonalEdgeStyle;rounded=0;sketch=1;hachureGap=4;jiggle=2;curveFitting=1;orthogonalLoop=1;jettySize=auto;html=1;exitX=0.5;exitY=1;exitDx=0;exitDy=0;entryX=0.5;entryY=0;entryDx=0;entryDy=0;strokeColor=#457B9D;fontFamily=Architects Daughter;fontSource=https%3A%2F%2Ffonts.googleapis.com%2Fcss%3Ffamily%3DArchitects%2BDaughter;fontSize=16;fontColor=#1D3557;fillColor=#A8DADC;" edge="1" parent="1" source="yjlJrb9iQwkOzFSjGN5_-3" target="yjlJrb9iQwkOzFSjGN5_-8">
          <mxGeometry relative="1" as="geometry" />
        </mxCell>
        <mxCell id="yjlJrb9iQwkOzFSjGN5_-3" value="Удобство" style="rounded=1;whiteSpace=wrap;html=1;sketch=1;hachureGap=4;jiggle=2;curveFitting=1;fontFamily=Architects Daughter;fontSource=https%3A%2F%2Ffonts.googleapis.com%2Fcss%3Ffamily%3DArchitects%2BDaughter;fontSize=20;labelBackgroundColor=none;fillColor=#A8DADC;strokeColor=#457B9D;fontColor=#1D3557;" vertex="1" parent="1">
          <mxGeometry x="600" y="160" width="160" height="80" as="geometry" />
        </mxCell>
        <mxCell id="yjlJrb9iQwkOzFSjGN5_-20" style="edgeStyle=orthogonalEdgeStyle;rounded=0;sketch=1;hachureGap=4;jiggle=2;curveFitting=1;orthogonalLoop=1;jettySize=auto;html=1;exitX=0.5;exitY=1;exitDx=0;exitDy=0;entryX=0.5;entryY=0;entryDx=0;entryDy=0;strokeColor=#457B9D;fontFamily=Architects Daughter;fontSource=https%3A%2F%2Ffonts.googleapis.com%2Fcss%3Ffamily%3DArchitects%2BDaughter;fontSize=16;fontColor=#1D3557;fillColor=#A8DADC;" edge="1" parent="1" source="yjlJrb9iQwkOzFSjGN5_-4" target="yjlJrb9iQwkOzFSjGN5_-9">
          <mxGeometry relative="1" as="geometry" />
        </mxCell>
        <mxCell id="yjlJrb9iQwkOzFSjGN5_-21" style="edgeStyle=orthogonalEdgeStyle;rounded=0;sketch=1;hachureGap=4;jiggle=2;curveFitting=1;orthogonalLoop=1;jettySize=auto;html=1;exitX=0.5;exitY=1;exitDx=0;exitDy=0;entryX=0.5;entryY=0;entryDx=0;entryDy=0;strokeColor=#457B9D;fontFamily=Architects Daughter;fontSource=https%3A%2F%2Ffonts.googleapis.com%2Fcss%3Ffamily%3DArchitects%2BDaughter;fontSize=16;fontColor=#1D3557;fillColor=#A8DADC;" edge="1" parent="1" source="yjlJrb9iQwkOzFSjGN5_-4" target="yjlJrb9iQwkOzFSjGN5_-10">
          <mxGeometry relative="1" as="geometry" />
        </mxCell>
        <mxCell id="yjlJrb9iQwkOzFSjGN5_-4" value="Материальная база" style="rounded=1;whiteSpace=wrap;html=1;sketch=1;hachureGap=4;jiggle=2;curveFitting=1;fontFamily=Architects Daughter;fontSource=https%3A%2F%2Ffonts.googleapis.com%2Fcss%3Ffamily%3DArchitects%2BDaughter;fontSize=20;labelBackgroundColor=none;fillColor=#A8DADC;strokeColor=#457B9D;fontColor=#1D3557;" vertex="1" parent="1">
          <mxGeometry x="1041" y="160" width="200" height="80" as="geometry" />
        </mxCell>
        <mxCell id="yjlJrb9iQwkOzFSjGN5_-5" value="Мощность" style="rounded=1;whiteSpace=wrap;html=1;sketch=1;hachureGap=4;jiggle=2;curveFitting=1;fontFamily=Architects Daughter;fontSource=https%3A%2F%2Ffonts.googleapis.com%2Fcss%3Ffamily%3DArchitects%2BDaughter;fontSize=20;labelBackgroundColor=none;fillColor=#A8DADC;strokeColor=#457B9D;fontColor=#1D3557;" vertex="1" parent="1">
          <mxGeometry x="40" y="280" width="160" height="80" as="geometry" />
        </mxCell>
        <mxCell id="yjlJrb9iQwkOzFSjGN5_-6" value="Тип коробки передач" style="rounded=1;whiteSpace=wrap;html=1;sketch=1;hachureGap=4;jiggle=2;curveFitting=1;fontFamily=Architects Daughter;fontSource=https%3A%2F%2Ffonts.googleapis.com%2Fcss%3Ffamily%3DArchitects%2BDaughter;fontSize=20;labelBackgroundColor=none;fillColor=#A8DADC;strokeColor=#457B9D;fontColor=#1D3557;" vertex="1" parent="1">
          <mxGeometry x="240" y="280" width="240" height="80" as="geometry" />
        </mxCell>
        <mxCell id="yjlJrb9iQwkOzFSjGN5_-7" value="Багажник" style="rounded=1;whiteSpace=wrap;html=1;sketch=1;hachureGap=4;jiggle=2;curveFitting=1;fontFamily=Architects Daughter;fontSource=https%3A%2F%2Ffonts.googleapis.com%2Fcss%3Ffamily%3DArchitects%2BDaughter;fontSize=20;labelBackgroundColor=none;fillColor=#A8DADC;strokeColor=#457B9D;fontColor=#1D3557;" vertex="1" parent="1">
          <mxGeometry x="520" y="280" width="160" height="80" as="geometry" />
        </mxCell>
        <mxCell id="yjlJrb9iQwkOzFSjGN5_-8" value="Салон" style="rounded=1;whiteSpace=wrap;html=1;sketch=1;hachureGap=4;jiggle=2;curveFitting=1;fontFamily=Architects Daughter;fontSource=https%3A%2F%2Ffonts.googleapis.com%2Fcss%3Ffamily%3DArchitects%2BDaughter;fontSize=20;labelBackgroundColor=none;fillColor=#A8DADC;strokeColor=#457B9D;fontColor=#1D3557;" vertex="1" parent="1">
          <mxGeometry x="720" y="280" width="160" height="80" as="geometry" />
        </mxCell>
        <mxCell id="yjlJrb9iQwkOzFSjGN5_-9" value="Цена автомобиля" style="rounded=1;whiteSpace=wrap;html=1;sketch=1;hachureGap=4;jiggle=2;curveFitting=1;fontFamily=Architects Daughter;fontSource=https%3A%2F%2Ffonts.googleapis.com%2Fcss%3Ffamily%3DArchitects%2BDaughter;fontSize=20;labelBackgroundColor=none;fillColor=#A8DADC;strokeColor=#457B9D;fontColor=#1D3557;" vertex="1" parent="1">
          <mxGeometry x="920" y="280" width="200" height="80" as="geometry" />
        </mxCell>
        <mxCell id="yjlJrb9iQwkOzFSjGN5_-10" value="Обслуживание" style="rounded=1;whiteSpace=wrap;html=1;sketch=1;hachureGap=4;jiggle=2;curveFitting=1;fontFamily=Architects Daughter;fontSource=https%3A%2F%2Ffonts.googleapis.com%2Fcss%3Ffamily%3DArchitects%2BDaughter;fontSize=20;labelBackgroundColor=none;fillColor=#A8DADC;strokeColor=#457B9D;fontColor=#1D3557;" vertex="1" parent="1">
          <mxGeometry x="1160" y="280" width="200" height="80" as="geometry" />
        </mxCell>
        <mxCell id="yjlJrb9iQwkOzFSjGN5_-11" value="А1" style="rounded=1;whiteSpace=wrap;html=1;sketch=1;hachureGap=4;jiggle=2;curveFitting=1;fontFamily=Architects Daughter;fontSource=https%3A%2F%2Ffonts.googleapis.com%2Fcss%3Ffamily%3DArchitects%2BDaughter;fontSize=20;labelBackgroundColor=none;fillColor=#A8DADC;strokeColor=#457B9D;fontColor=#1D3557;" vertex="1" parent="1">
          <mxGeometry x="520" y="480" width="80" height="80" as="geometry" />
        </mxCell>
        <mxCell id="yjlJrb9iQwkOzFSjGN5_-12" value="А2" style="rounded=1;whiteSpace=wrap;html=1;sketch=1;hachureGap=4;jiggle=2;curveFitting=1;fontFamily=Architects Daughter;fontSource=https%3A%2F%2Ffonts.googleapis.com%2Fcss%3Ffamily%3DArchitects%2BDaughter;fontSize=20;labelBackgroundColor=none;fillColor=#A8DADC;strokeColor=#457B9D;fontColor=#1D3557;" vertex="1" parent="1">
          <mxGeometry x="760" y="480" width="80" height="80" as="geometry" />
        </mxCell>
        <mxCell id="yjlJrb9iQwkOzFSjGN5_-29" value="" style="endArrow=classic;html=1;rounded=0;sketch=1;hachureGap=4;jiggle=2;curveFitting=1;strokeColor=#457B9D;fontFamily=Architects Daughter;fontSource=https%3A%2F%2Ffonts.googleapis.com%2Fcss%3Ffamily%3DArchitects%2BDaughter;fontSize=16;fontColor=#1D3557;fillColor=#A8DADC;entryX=0.5;entryY=0;entryDx=0;entryDy=0;exitX=0.5;exitY=1;exitDx=0;exitDy=0;" edge="1" parent="1" source="yjlJrb9iQwkOzFSjGN5_-5" target="yjlJrb9iQwkOzFSjGN5_-11">
          <mxGeometry width="50" height="50" relative="1" as="geometry">
            <mxPoint x="700" y="450" as="sourcePoint" />
            <mxPoint x="720" y="610" as="targetPoint" />
          </mxGeometry>
        </mxCell>
        <mxCell id="yjlJrb9iQwkOzFSjGN5_-30" value="" style="endArrow=classic;html=1;rounded=0;sketch=1;hachureGap=4;jiggle=2;curveFitting=1;strokeColor=#457B9D;fontFamily=Architects Daughter;fontSource=https%3A%2F%2Ffonts.googleapis.com%2Fcss%3Ffamily%3DArchitects%2BDaughter;fontSize=16;fontColor=#1D3557;fillColor=#A8DADC;exitX=0.5;exitY=1;exitDx=0;exitDy=0;entryX=0.5;entryY=0;entryDx=0;entryDy=0;" edge="1" parent="1" source="yjlJrb9iQwkOzFSjGN5_-6" target="yjlJrb9iQwkOzFSjGN5_-11">
          <mxGeometry width="50" height="50" relative="1" as="geometry">
            <mxPoint x="130" y="370" as="sourcePoint" />
            <mxPoint x="560" y="440" as="targetPoint" />
          </mxGeometry>
        </mxCell>
        <mxCell id="yjlJrb9iQwkOzFSjGN5_-31" value="" style="endArrow=classic;html=1;rounded=0;sketch=1;hachureGap=4;jiggle=2;curveFitting=1;strokeColor=#457B9D;fontFamily=Architects Daughter;fontSource=https%3A%2F%2Ffonts.googleapis.com%2Fcss%3Ffamily%3DArchitects%2BDaughter;fontSize=16;fontColor=#1D3557;fillColor=#A8DADC;exitX=0.5;exitY=1;exitDx=0;exitDy=0;entryX=0.5;entryY=0;entryDx=0;entryDy=0;" edge="1" parent="1" source="yjlJrb9iQwkOzFSjGN5_-7" target="yjlJrb9iQwkOzFSjGN5_-11">
          <mxGeometry width="50" height="50" relative="1" as="geometry">
            <mxPoint x="370" y="370" as="sourcePoint" />
            <mxPoint x="560" y="440" as="targetPoint" />
          </mxGeometry>
        </mxCell>
        <mxCell id="yjlJrb9iQwkOzFSjGN5_-32" value="" style="endArrow=classic;html=1;rounded=0;sketch=1;hachureGap=4;jiggle=2;curveFitting=1;strokeColor=#457B9D;fontFamily=Architects Daughter;fontSource=https%3A%2F%2Ffonts.googleapis.com%2Fcss%3Ffamily%3DArchitects%2BDaughter;fontSize=16;fontColor=#1D3557;fillColor=#A8DADC;exitX=0.5;exitY=1;exitDx=0;exitDy=0;entryX=0.5;entryY=0;entryDx=0;entryDy=0;" edge="1" parent="1" source="yjlJrb9iQwkOzFSjGN5_-8" target="yjlJrb9iQwkOzFSjGN5_-11">
          <mxGeometry width="50" height="50" relative="1" as="geometry">
            <mxPoint x="610" y="370" as="sourcePoint" />
            <mxPoint x="560" y="440" as="targetPoint" />
          </mxGeometry>
        </mxCell>
        <mxCell id="yjlJrb9iQwkOzFSjGN5_-33" value="" style="endArrow=classic;html=1;rounded=0;sketch=1;hachureGap=4;jiggle=2;curveFitting=1;strokeColor=#457B9D;fontFamily=Architects Daughter;fontSource=https%3A%2F%2Ffonts.googleapis.com%2Fcss%3Ffamily%3DArchitects%2BDaughter;fontSize=16;fontColor=#1D3557;fillColor=#A8DADC;exitX=0.5;exitY=1;exitDx=0;exitDy=0;entryX=0.5;entryY=0;entryDx=0;entryDy=0;" edge="1" parent="1" source="yjlJrb9iQwkOzFSjGN5_-9" target="yjlJrb9iQwkOzFSjGN5_-11">
          <mxGeometry width="50" height="50" relative="1" as="geometry">
            <mxPoint x="810" y="370" as="sourcePoint" />
            <mxPoint x="560" y="440" as="targetPoint" />
          </mxGeometry>
        </mxCell>
        <mxCell id="yjlJrb9iQwkOzFSjGN5_-34" value="" style="endArrow=classic;html=1;rounded=0;sketch=1;hachureGap=4;jiggle=2;curveFitting=1;strokeColor=#457B9D;fontFamily=Architects Daughter;fontSource=https%3A%2F%2Ffonts.googleapis.com%2Fcss%3Ffamily%3DArchitects%2BDaughter;fontSize=16;fontColor=#1D3557;fillColor=#A8DADC;exitX=0.5;exitY=1;exitDx=0;exitDy=0;entryX=0.5;entryY=0;entryDx=0;entryDy=0;" edge="1" parent="1" source="yjlJrb9iQwkOzFSjGN5_-10" target="yjlJrb9iQwkOzFSjGN5_-11">
          <mxGeometry width="50" height="50" relative="1" as="geometry">
            <mxPoint x="1030" y="370" as="sourcePoint" />
            <mxPoint x="560" y="440" as="targetPoint" />
          </mxGeometry>
        </mxCell>
        <mxCell id="yjlJrb9iQwkOzFSjGN5_-35" value="" style="endArrow=classic;html=1;rounded=0;sketch=1;hachureGap=4;jiggle=2;curveFitting=1;strokeColor=#457B9D;fontFamily=Architects Daughter;fontSource=https%3A%2F%2Ffonts.googleapis.com%2Fcss%3Ffamily%3DArchitects%2BDaughter;fontSize=16;fontColor=#1D3557;fillColor=#A8DADC;exitX=0.5;exitY=1;exitDx=0;exitDy=0;entryX=0.5;entryY=0;entryDx=0;entryDy=0;" edge="1" parent="1" source="yjlJrb9iQwkOzFSjGN5_-5" target="yjlJrb9iQwkOzFSjGN5_-12">
          <mxGeometry width="50" height="50" relative="1" as="geometry">
            <mxPoint x="350" y="570" as="sourcePoint" />
            <mxPoint x="400" y="520" as="targetPoint" />
          </mxGeometry>
        </mxCell>
        <mxCell id="yjlJrb9iQwkOzFSjGN5_-36" value="" style="endArrow=classic;html=1;rounded=0;sketch=1;hachureGap=4;jiggle=2;curveFitting=1;strokeColor=#457B9D;fontFamily=Architects Daughter;fontSource=https%3A%2F%2Ffonts.googleapis.com%2Fcss%3Ffamily%3DArchitects%2BDaughter;fontSize=16;fontColor=#1D3557;fillColor=#A8DADC;exitX=0.5;exitY=1;exitDx=0;exitDy=0;entryX=0.5;entryY=0;entryDx=0;entryDy=0;" edge="1" parent="1" source="yjlJrb9iQwkOzFSjGN5_-6" target="yjlJrb9iQwkOzFSjGN5_-12">
          <mxGeometry width="50" height="50" relative="1" as="geometry">
            <mxPoint x="130" y="370" as="sourcePoint" />
            <mxPoint x="810" y="490" as="targetPoint" />
          </mxGeometry>
        </mxCell>
        <mxCell id="yjlJrb9iQwkOzFSjGN5_-37" value="" style="endArrow=classic;html=1;rounded=0;sketch=1;hachureGap=4;jiggle=2;curveFitting=1;strokeColor=#457B9D;fontFamily=Architects Daughter;fontSource=https%3A%2F%2Ffonts.googleapis.com%2Fcss%3Ffamily%3DArchitects%2BDaughter;fontSize=16;fontColor=#1D3557;fillColor=#A8DADC;exitX=0.5;exitY=1;exitDx=0;exitDy=0;entryX=0.5;entryY=0;entryDx=0;entryDy=0;" edge="1" parent="1" source="yjlJrb9iQwkOzFSjGN5_-7" target="yjlJrb9iQwkOzFSjGN5_-12">
          <mxGeometry width="50" height="50" relative="1" as="geometry">
            <mxPoint x="370" y="370" as="sourcePoint" />
            <mxPoint x="800" y="480" as="targetPoint" />
          </mxGeometry>
        </mxCell>
        <mxCell id="yjlJrb9iQwkOzFSjGN5_-38" value="" style="endArrow=classic;html=1;rounded=0;sketch=1;hachureGap=4;jiggle=2;curveFitting=1;strokeColor=#457B9D;fontFamily=Architects Daughter;fontSource=https%3A%2F%2Ffonts.googleapis.com%2Fcss%3Ffamily%3DArchitects%2BDaughter;fontSize=16;fontColor=#1D3557;fillColor=#A8DADC;exitX=0.5;exitY=1;exitDx=0;exitDy=0;entryX=0.5;entryY=0;entryDx=0;entryDy=0;" edge="1" parent="1" source="yjlJrb9iQwkOzFSjGN5_-8" target="yjlJrb9iQwkOzFSjGN5_-12">
          <mxGeometry width="50" height="50" relative="1" as="geometry">
            <mxPoint x="610" y="370" as="sourcePoint" />
            <mxPoint x="810" y="490" as="targetPoint" />
          </mxGeometry>
        </mxCell>
        <mxCell id="yjlJrb9iQwkOzFSjGN5_-39" value="" style="endArrow=classic;html=1;rounded=0;sketch=1;hachureGap=4;jiggle=2;curveFitting=1;strokeColor=#457B9D;fontFamily=Architects Daughter;fontSource=https%3A%2F%2Ffonts.googleapis.com%2Fcss%3Ffamily%3DArchitects%2BDaughter;fontSize=16;fontColor=#1D3557;fillColor=#A8DADC;exitX=0.5;exitY=1;exitDx=0;exitDy=0;entryX=0.5;entryY=0;entryDx=0;entryDy=0;" edge="1" parent="1" source="yjlJrb9iQwkOzFSjGN5_-9" target="yjlJrb9iQwkOzFSjGN5_-12">
          <mxGeometry width="50" height="50" relative="1" as="geometry">
            <mxPoint x="810" y="370" as="sourcePoint" />
            <mxPoint x="810" y="490" as="targetPoint" />
          </mxGeometry>
        </mxCell>
        <mxCell id="yjlJrb9iQwkOzFSjGN5_-40" value="" style="endArrow=classic;html=1;rounded=0;sketch=1;hachureGap=4;jiggle=2;curveFitting=1;strokeColor=#457B9D;fontFamily=Architects Daughter;fontSource=https%3A%2F%2Ffonts.googleapis.com%2Fcss%3Ffamily%3DArchitects%2BDaughter;fontSize=16;fontColor=#1D3557;fillColor=#A8DADC;exitX=0.5;exitY=1;exitDx=0;exitDy=0;entryX=0.5;entryY=0;entryDx=0;entryDy=0;" edge="1" parent="1" source="yjlJrb9iQwkOzFSjGN5_-10" target="yjlJrb9iQwkOzFSjGN5_-12">
          <mxGeometry width="50" height="50" relative="1" as="geometry">
            <mxPoint x="1030" y="370" as="sourcePoint" />
            <mxPoint x="810" y="490" as="targetPoint" />
          </mxGeometry>
        </mxCell>
      </root>
    </mxGraphModel>
  </diagram>
</mxfile>
